<svg data-v-0dd9719b="" version="1.0" xmlns="http://www.w3.org/2000/svg" xmlns:xlink="http://www.w3.org/1999/xlink" width="100%" height="100%" viewBox="0 0 340.000000 250.000000" preserveAspectRatio="xMidYMid meet" color-interpolation-filters="sRGB" style="margin: auto;"> <rect data-v-0dd9719b="" x="0" y="0" width="100%" height="100%" fill="#fff" fill-opacity="1" class="background"></rect> <rect data-v-0dd9719b="" x="0" y="0" width="100%" height="100%" fill="url(#watermark)" fill-opacity="1" class="watermarklayer"></rect> <g data-v-0dd9719b="" fill="#333" class="icon-text-wrapper icon-svg-group iconsvg" transform="translate(58.06999969482422,90.55643463134766)"><g class="iconsvg-imagesvg" transform="translate(0,0)"><g><rect fill="#333" fill-opacity="0" stroke-width="2" x="0" y="0" width="60" height="68.88712844005097" class="image-rect"></rect> <svg x="0" y="0" width="60" height="68.88712844005097" filtersec="colorsb3813579063" class="image-svg-svg primary" style="overflow: visible;"><svg xmlns="http://www.w3.org/2000/svg" viewBox="0.02433544024825096 0 104.75301361083984 120.26822662353516"><path d="M91.56 104.16c.65.37.33.66 0 1a52 52 0 0 1-40 15c-.37 0-.83.09-1-.53-.88-4.47-3.29-8.36-4.82-12.59a120.62 120.62 0 0 1-5-18.93 148.27 148.27 0 0 1-2.5-29 130.33 130.33 0 0 1 9.89-49.38 1.32 1.32 0 0 1 .41-.61c-.15 1.45-.27 2.89-.43 4.34a117 117 0 0 0-.43 22.3 128.35 128.35 0 0 0 4.25 25.42c3 10.43 7.51 20.15 15.35 28a36 36 0 0 0 5.26 4.18 51.58 51.58 0 0 0 4.39 3.08 4.12 4.12 0 0 0 .43.41 61.71 61.71 0 0 0 10.1 5.72 17.66 17.66 0 0 0 4.1 1.59z" fill="#1da987"></path><path d="M30.55 19.63c-.83 2.92-1.61 5.63-2.36 8.34-.14.51-.55.68-.91.92A46 46 0 0 0 6.61 69.37 46.52 46.52 0 0 0 13.08 91a42.63 42.63 0 0 0 10.56 12.07c.13.1.24.25.39.21-3.56-20.85-1.3-41.28 4.73-61.43A127.23 127.23 0 0 1 50.06 0c.18 0 .14.14.11.21-3.33 8-5.38 16.34-8 24.53-1.3 4-2.89 8-4 12.05a151.57 151.57 0 0 0-4.48 22 145.49 145.49 0 0 0-1.14 17.94 115.88 115.88 0 0 0 4.65 34.31 39 39 0 0 1 1.13 8.06A52.27 52.27 0 0 1 1.36 79.25a52.73 52.73 0 0 1 29.19-59.62zM91.56 104.16a17.66 17.66 0 0 1-4.1-1.61 61.71 61.71 0 0 1-10.1-5.72 4.12 4.12 0 0 1-.43-.41 25.94 25.94 0 0 0 18.83-13.78 23.8 23.8 0 0 0 2.15-7.84 46 46 0 0 0-.5-17.8 45.5 45.5 0 0 0-13.57-23.41A45 45 0 0 0 58.3 21.75a42.65 42.65 0 0 0-6.49-.34c-.64 0-.84-.16-.82-.8v-4.76c0-.77.21-1 1-1a51.87 51.87 0 0 1 32.59 10.9A51.12 51.12 0 0 1 104 57.19a50.58 50.58 0 0 1 .37 15.24 65.38 65.38 0 0 1-4.75 19.26c-1.93 4.62-4.32 8.98-8.06 12.47z" fill="#0a507b"></path></svg></svg> <!----></g></g> <g transform="translate(67,7.922311782836914)"><g data-gra="path-name" fill-rule="" class="tp-name iconsvg-namesvg" transform="translate(0,0)"><g transform="scale(1)"><g><path d="M6.76-29.38L7-29.38 15.71-29.38 14.9-33.33 18.48-33.33 19.29-29.38 30.81-29.38 30.81-26.43 7-26.43 7-8.67Q7-5.62 6.36-2.02 5.71 1.57 4.81 4.67L4.81 4.67 1.33 4.67Q2.19 1.43 2.81-2.26 3.43-5.95 3.43-8.95L3.43-8.95 3.43-29.38 3.62-29.38 4.38-29.38 6.76-29.38ZM52.86-20.48L56.43-20.48 58.52-11.81 54.9-11.81 52.86-20.48ZM43.29-20.48L46.86-20.48 48.95-11.81 45.33-11.81 43.29-20.48ZM35.52-20.48L39.14-20.48 37.05-11.81 33.48-11.81 35.52-20.48ZM58.67-33.33L58.67 4.76 62.24 4.76 62.24-33.33 58.67-33.33ZM49.1-32.1L49.1 3.19 52.71 3.19 52.71-32.1 49.1-32.1ZM43.1-8.9Q43.1-4.9 41.6-1.31 40.1 2.29 37.9 4.76L37.9 4.76 33.95 4.76Q36.29 1.86 37.9-1.83 39.52-5.52 39.52-9.19L39.52-9.19 39.52-33.33 43.1-33.33 43.1-8.9ZM64.9-25.19L64.9-28.19 94.05-28.19 94.05-25.19 81.29-25.19 81.29-21.43 89.14-21.43Q90.57-21.38 91.55-20.6 92.52-19.81 92.52-18.29L92.52-18.29 92.52-4.67Q92.52-2.67 91.48-1.71 90.43-0.76 88.9-0.71L88.9-0.71 85-0.71 84.38-3.71 87.86-3.71 87.9-3.71Q88.9-3.71 88.9-4.71L88.9-4.71 88.9-16.86Q88.9-17.57 88.55-17.93 88.19-18.29 87.67-18.29L87.67-18.29 81.29-18.29 81.29 4.67 77.67 4.67 77.67-18.29 70.05-18.29 70.05-0.71 66.43-0.71 66.43-21.43 68.9-21.43 70.05-21.43 77.67-21.43 77.67-25.19 64.9-25.19ZM79.67-33.33L81.52-28.76 77.71-28.76 75.86-33.33 79.67-33.33ZM101.48 4L101.48-10.29 96.71-10.29Q99.24-11.33 102.69-13.31 106.14-15.29 109.81-17.9L109.81-17.9 104.81-23.86 108.57-23.86 112.14-19.62Q116.81-23.19 120.52-26.86L120.52-26.86 105.86-26.86Q103.95-23.76 102.19-21.57L102.19-21.57 98.52-21.57Q100.33-23.9 102.38-27.02 104.43-30.14 106.1-33.29L106.1-33.29 109.48-33.29 107.76-30 124.95-30 124.95-26.86Q121.19-22.38 116.71-18.88 112.24-15.38 108-12.86L108-12.86 122.38-12.86Q124.1-12.86 124.93-12.07 125.76-11.29 125.76-10.19L125.76-10.19 125.76 4 101.48 4 101.48 4ZM122.38-8.62Q122.38-9.24 122.02-9.55 121.67-9.86 121.14-9.86L121.14-9.86 104.81-9.86 104.81 1 122.38 1 122.38-8.62ZM129 4.19L129 1.19 147.38 1.19 149.43-3.81 153.14-3.81 151.1 1.19 157.57 1.19 157.57 4.19 129 4.19ZM154.43-13.38L154.43-5.1 132.1-5.1 132.1-15.57 135.48-15.57 151.1-15.57Q152.81-15.57 153.62-14.93 154.43-14.29 154.43-13.38L154.43-13.38ZM151.1-8.1L151.1-11.67Q151.1-12.14 150.79-12.38 150.48-12.62 150-12.62L150-12.62 135.48-12.62 135.48-8.1 151.1-8.1ZM135.1 0.19L133.52-3.81 137.24-3.81 138.81 0.19 135.1 0.19ZM158.19-28.19Q155.95-24.29 154.38-22.57L154.38-22.57 153.14-22.57Q155.24-19.19 157.76-15.9L157.76-15.9 153.62-15.9Q152.57-17.14 151.62-18.33L151.62-18.33 151.62-17.43 135.29-17.43 135.29-18.52Q134.05-17.05 132.76-15.9L132.76-15.9 128.43-15.9Q131.14-18.71 133.43-21.81L133.43-21.81 133.14-21.81 129.52-27.38 133.24-27.38 135.19-24.43Q136.81-27.14 137.57-29.14L137.57-29.14 130-29.14 130-32.14 141.43-32.14 141.43-29.14Q140.71-27.24 139.5-24.88 138.29-22.52 136.76-20.38L136.76-20.38 150.19-20.38Q148.29-23.38 146.81-26.69 145.33-30 144.48-32.76L144.48-32.76 148.24-32.76Q148.67-31.43 149.52-29.48L149.52-29.48Q150.76-31.1 151.86-33.05L151.86-33.05 155.52-33.05Q153.29-29.14 151.67-27.38L151.67-27.38 150.52-27.38Q151.1-26.19 152.05-24.43L152.05-24.43Q153.38-26.1 154.52-28.19L154.52-28.19 158.19-28.19Z" transform="translate(-1.3300000429153442, 33.33000183105469)"></path></g> <!----> <!----> <!----> <!----> <!----> <!----> <!----></g></g> <g data-gra="path-slogan" fill-rule="" class="tp-slogan iconsvg-slogansvg" fill="#333" transform="translate(5.749443054199219,44.090003967285156)"><!----> <!----> <g transform="scale(1, 1)"><g transform="scale(1)"><path d="M7.31-3.61L4.69-3.61L4.69-4.59L8.44-4.59L8.44 0L7.69 0L7.41-1.08Q6.42 0.09 4.59 0.14L4.59 0.14Q2.86 0.14 1.92-0.75L1.92-0.75Q0.52-2.06 0.56-4.36L0.56-4.36Q0.89-8.63 4.64-8.81L4.64-8.81Q7.83-8.63 8.30-6L8.30-6L7.17-6Q6.70-7.78 4.59-7.83L4.59-7.83Q1.92-7.64 1.78-4.31L1.78-4.31Q1.78-0.75 4.64-0.75L4.64-0.75Q5.67-0.75 6.42-1.31L6.42-1.31Q7.36-2.06 7.31-3.61L7.31-3.61ZM15.89-3.19L15.89-8.58L17.06-8.58L17.06-3.05Q16.92 0.05 13.55 0.14L13.55 0.14Q10.41 0.05 10.27-2.86L10.27-2.86L10.27-8.58L11.44-8.58L11.44-3.19Q11.48-0.84 13.59-0.80L13.59-0.80Q15.89-0.84 15.89-3.19L15.89-3.19ZM24.52 0L23.67-2.48L20.20-2.48L19.31 0L18.14 0L21.38-8.58L22.69-8.58L25.78 0L24.52 0ZM21.94-7.31L20.58-3.52L23.25-3.52L21.98-7.31L21.94-7.31ZM28.22-8.58L32.53-1.64L32.53-8.58L33.66-8.58L33.66 0L32.34 0L27.98-6.94L27.94-6.94L27.94 0L26.81 0L26.81-8.58L28.22-8.58ZM41.86-3.61L39.23-3.61L39.23-4.59L42.98-4.59L42.98 0L42.23 0L41.95-1.08Q40.97 0.09 39.14 0.14L39.14 0.14Q37.41 0.14 36.47-0.75L36.47-0.75Q35.06-2.06 35.11-4.36L35.11-4.36Q35.44-8.63 39.19-8.81L39.19-8.81Q42.38-8.63 42.84-6L42.84-6L41.72-6Q41.25-7.78 39.14-7.83L39.14-7.83Q36.47-7.64 36.33-4.31L36.33-4.31Q36.33-0.75 39.19-0.75L39.19-0.75Q40.22-0.75 40.97-1.31L40.97-1.31Q41.91-2.06 41.86-3.61L41.86-3.61ZM45.61-1.03L50.91-1.03L50.91 0L44.16 0L44.16-0.94L49.41-7.59L44.53-7.59L44.53-8.58L50.91-8.58L50.91-7.59L45.61-1.03ZM53.20-5.06L57.70-5.06L57.70-8.58L58.88-8.58L58.88 0L57.70 0L57.70-3.98L53.20-3.98L53.20 0L52.03 0L52.03-8.58L53.20-8.58L53.20-5.06ZM67.45-4.27L67.45-4.27Q67.27-7.64 64.45-7.83L64.45-7.83Q61.59-7.69 61.45-4.27L61.45-4.27Q61.59-0.94 64.45-0.80L64.45-0.80Q67.27-0.98 67.45-4.27ZM68.63-4.27L68.63-4.27Q68.34 0 64.45 0.14L64.45 0.14Q60.52 0 60.23-4.27L60.23-4.27Q60.47-8.72 64.45-8.81L64.45-8.81Q68.34-8.67 68.63-4.27ZM75.66-3.19L75.66-8.58L76.83-8.58L76.83-3.05Q76.69 0.05 73.31 0.14L73.31 0.14Q70.17 0.05 70.03-2.86L70.03-2.86L70.03-8.58L71.20-8.58L71.20-3.19Q71.25-0.84 73.36-0.80L73.36-0.80Q75.66-0.84 75.66-3.19L75.66-3.19ZM90.19-8.58L90.19 0L89.06 0L89.06-5.06Q89.06-5.77 89.06-7.22L89.06-7.22L86.63 0L85.45 0L83.06-7.22L83.02-7.22Q83.02-6.70 83.06-5.67L83.06-5.67Q83.06-5.16 83.06-5.06L83.06-5.06L83.06 0L81.89 0L81.89-8.58L83.58-8.58L86.06-1.31L88.50-8.58L90.19-8.58ZM92.06-8.58L93.23-8.58L93.23 0L92.06 0L92.06-8.58ZM96.61-8.58L100.92-1.64L100.92-8.58L102.05-8.58L102.05 0L100.73 0L96.38-6.94L96.33-6.94L96.33 0L95.20 0L95.20-8.58L96.61-8.58ZM110.25-3.61L107.63-3.61L107.63-4.59L111.38-4.59L111.38 0L110.63 0L110.34-1.08Q109.36 0.09 107.53 0.14L107.53 0.14Q105.80 0.14 104.86-0.75L104.86-0.75Q103.45-2.06 103.50-4.36L103.50-4.36Q103.83-8.63 107.58-8.81L107.58-8.81Q110.77-8.63 111.23-6L111.23-6L110.11-6Q109.64-7.78 107.53-7.83L107.53-7.83Q104.86-7.64 104.72-4.31L104.72-4.31Q104.72-0.75 107.58-0.75L107.58-0.75Q108.61-0.75 109.36-1.31L109.36-1.31Q110.30-2.06 110.25-3.61L110.25-3.61ZM116.67 0L113.20 0L113.20-8.58L116.72-8.58Q120.19-8.39 120.33-4.41L120.33-4.41Q120.14-0.09 116.67 0L116.67 0ZM116.53-7.64L114.38-7.64L114.38-0.98L116.63-0.98Q119.06-1.13 119.16-4.31L119.16-4.31Q119.11-7.55 116.53-7.64L116.53-7.64ZM123.09-1.03L128.25-1.03L128.25 0L121.92 0L121.92-8.58L128.16-8.58L128.16-7.59L123.09-7.59L123.09-4.92L127.78-4.92L127.78-3.89L123.09-3.89L123.09-1.03ZM131.16-8.58L135.47-1.64L135.47-8.58L136.59-8.58L136.59 0L135.28 0L130.92-6.94L130.88-6.94L130.88 0L129.75 0L129.75-8.58L131.16-8.58ZM144.80-3.61L142.17-3.61L142.17-4.59L145.92-4.59L145.92 0L145.17 0L144.89-1.08Q143.91 0.09 142.08 0.14L142.08 0.14Q140.34 0.14 139.41-0.75L139.41-0.75Q138-2.06 138.05-4.36L138.05-4.36Q138.38-8.63 142.13-8.81L142.13-8.81Q145.31-8.63 145.78-6L145.78-6L144.66-6Q144.19-7.78 142.08-7.83L142.08-7.83Q139.41-7.64 139.27-4.31L139.27-4.31Q139.27-0.75 142.13-0.75L142.13-0.75Q143.16-0.75 143.91-1.31L143.91-1.31Q144.84-2.06 144.80-3.61L144.80-3.61Z" transform="translate(-0.5609879032258065, 8.8125)"></path></g></g></g></g></g><defs v-gra="od"></defs></svg>